<svg width="1440" height="1024" viewBox="0 0 1440 1024" fill="none" xmlns="http://www.w3.org/2000/svg">
<rect x="139.25" y="-32.75" width="768.5" height="391.5" rx="10.75" stroke="white" stroke-opacity="0.2" stroke-width="0.5"/>
<rect x="-645.75" y="-32.75" width="768.5" height="479.5" rx="10.75" stroke="white" stroke-opacity="0.2" stroke-width="0.5"/>
<rect x="1317.25" y="223.25" width="768.5" height="479.5" rx="10.75" stroke="white" stroke-opacity="0.2" stroke-width="0.5"/>
<rect x="1317.25" y="-8.75" width="768.5" height="215.5" rx="10.75" stroke="white" stroke-opacity="0.2" stroke-width="0.5"/>
<rect x="-645.75" y="463.25" width="768.5" height="215.5" rx="10.75" stroke="white" stroke-opacity="0.2" stroke-width="0.5"/>
<rect x="-645.75" y="695.25" width="768.5" height="391.5" rx="10.75" stroke="white" stroke-opacity="0.2" stroke-width="0.5"/>
<rect x="1317.25" y="719.25" width="768.5" height="391.5" rx="10.75" stroke="white" stroke-opacity="0.2" stroke-width="0.5"/>
<rect x="924.25" y="-32.75" width="376.5" height="672.5" rx="10.75" stroke="white" stroke-opacity="0.2" stroke-width="0.5"/>
<rect x="531.25" y="656.25" width="769.5" height="399.5" rx="10.75" stroke="white" stroke-opacity="0.2" stroke-width="0.5"/>
<rect x="139.25" y="375.25" width="375.5" height="391.5" rx="10.75" stroke="white" stroke-opacity="0.2" stroke-width="0.5"/>
<rect x="139.25" y="783.25" width="375.5" height="272.5" rx="10.75" stroke="white" stroke-opacity="0.2" stroke-width="0.5"/>
<rect x="531.25" y="375.25" width="376.5" height="264.5" rx="10.75" stroke="white" stroke-opacity="0.2" stroke-width="0.5"/>
</svg>
